<?xml version="1.0" encoding="UTF-8"?>
<!-- Voice Aura Design System — halftone-wide.svg
     Wide-format halftone dot pattern (1200×400).
     Usage: full-width background decoration behind the hero section.
     Dots are arranged in a 30×15 grid and follow a radial gradient
     pattern — largest and darkest (r=8, opacity 0.75) at center-bottom,
     fading to tiny and transparent (r=0.8, opacity 0.04) toward the edges.
     Creates the dramatic halftone effect for premium section backgrounds.
     Color: near-black #1A1919  -->
<svg xmlns="http://www.w3.org/2000/svg" viewBox="0 0 1200 400"
     width="1200" height="400" fill="none">
  <circle cx="20.0" cy="13.0" r="0.99" fill="#1A1919" opacity="0.0589"/>
  <circle cx="60.0" cy="13.0" r="1.26" fill="#1A1919" opacity="0.0851"/>
  <circle cx="100.0" cy="13.0" r="1.52" fill="#1A1919" opacity="0.1109"/>
  <circle cx="140.0" cy="13.0" r="1.78" fill="#1A1919" opacity="0.1362"/>
  <circle cx="180.0" cy="13.0" r="2.03" fill="#1A1919" opacity="0.1608"/>
  <circle cx="220.0" cy="13.0" r="2.27" fill="#1A1919" opacity="0.1847"/>
  <circle cx="260.0" cy="13.0" r="2.5" fill="#1A1919" opacity="0.2075"/>
  <circle cx="300.0" cy="13.0" r="2.72" fill="#1A1919" opacity="0.2291"/>
  <circle cx="340.0" cy="13.0" r="2.92" fill="#1A1919" opacity="0.2491"/>
  <circle cx="380.0" cy="13.0" r="3.11" fill="#1A1919" opacity="0.2673"/>
  <circle cx="420.0" cy="13.0" r="3.27" fill="#1A1919" opacity="0.2833"/>
  <circle cx="460.0" cy="13.0" r="3.4" fill="#1A1919" opacity="0.2967"/>
  <circle cx="500.0" cy="13.0" r="3.51" fill="#1A1919" opacity="0.3072"/>
  <circle cx="540.0" cy="13.0" r="3.58" fill="#1A1919" opacity="0.3143"/>
  <circle cx="580.0" cy="13.0" r="3.62" fill="#1A1919" opacity="0.318"/>
  <circle cx="620.0" cy="13.0" r="3.62" fill="#1A1919" opacity="0.318"/>
  <circle cx="660.0" cy="13.0" r="3.58" fill="#1A1919" opacity="0.3143"/>
  <circle cx="700.0" cy="13.0" r="3.51" fill="#1A1919" opacity="0.3072"/>
  <circle cx="740.0" cy="13.0" r="3.4" fill="#1A1919" opacity="0.2967"/>
  <circle cx="780.0" cy="13.0" r="3.27" fill="#1A1919" opacity="0.2833"/>
  <circle cx="820.0" cy="13.0" r="3.11" fill="#1A1919" opacity="0.2673"/>
  <circle cx="860.0" cy="13.0" r="2.92" fill="#1A1919" opacity="0.2491"/>
  <circle cx="900.0" cy="13.0" r="2.72" fill="#1A1919" opacity="0.2291"/>
  <circle cx="940.0" cy="13.0" r="2.5" fill="#1A1919" opacity="0.2075"/>
  <circle cx="980.0" cy="13.0" r="2.27" fill="#1A1919" opacity="0.1847"/>
  <circle cx="1020.0" cy="13.0" r="2.03" fill="#1A1919" opacity="0.1608"/>
  <circle cx="1060.0" cy="13.0" r="1.78" fill="#1A1919" opacity="0.1362"/>
  <circle cx="1100.0" cy="13.0" r="1.52" fill="#1A1919" opacity="0.1109"/>
  <circle cx="1140.0" cy="13.0" r="1.26" fill="#1A1919" opacity="0.0851"/>
  <circle cx="1180.0" cy="13.0" r="0.99" fill="#1A1919" opacity="0.0589"/>
  <circle cx="20.0" cy="39.7" r="1.11" fill="#1A1919" opacity="0.0703"/>
  <circle cx="60.0" cy="39.7" r="1.38" fill="#1A1919" opacity="0.0972"/>
  <circle cx="100.0" cy="39.7" r="1.65" fill="#1A1919" opacity="0.1238"/>
  <circle cx="140.0" cy="39.7" r="1.92" fill="#1A1919" opacity="0.15"/>
  <circle cx="180.0" cy="39.7" r="2.17" fill="#1A1919" opacity="0.1755"/>
  <circle cx="220.0" cy="39.7" r="2.43" fill="#1A1919" opacity="0.2003"/>
  <circle cx="260.0" cy="39.7" r="2.67" fill="#1A1919" opacity="0.2242"/>
  <circle cx="300.0" cy="39.7" r="2.9" fill="#1A1919" opacity="0.2468"/>
  <circle cx="340.0" cy="39.7" r="3.11" fill="#1A1919" opacity="0.268"/>
  <circle cx="380.0" cy="39.7" r="3.31" fill="#1A1919" opacity="0.2873"/>
  <circle cx="420.0" cy="39.7" r="3.48" fill="#1A1919" opacity="0.3044"/>
  <circle cx="460.0" cy="39.7" r="3.63" fill="#1A1919" opacity="0.3188"/>
  <circle cx="500.0" cy="39.7" r="3.74" fill="#1A1919" opacity="0.3301"/>
  <circle cx="540.0" cy="39.7" r="3.82" fill="#1A1919" opacity="0.3379"/>
  <circle cx="580.0" cy="39.7" r="3.86" fill="#1A1919" opacity="0.3419"/>
  <circle cx="620.0" cy="39.7" r="3.86" fill="#1A1919" opacity="0.3419"/>
  <circle cx="660.0" cy="39.7" r="3.82" fill="#1A1919" opacity="0.3379"/>
  <circle cx="700.0" cy="39.7" r="3.74" fill="#1A1919" opacity="0.3301"/>
  <circle cx="740.0" cy="39.7" r="3.63" fill="#1A1919" opacity="0.3188"/>
  <circle cx="780.0" cy="39.7" r="3.48" fill="#1A1919" opacity="0.3044"/>
  <circle cx="820.0" cy="39.7" r="3.31" fill="#1A1919" opacity="0.2873"/>
  <circle cx="860.0" cy="39.7" r="3.11" fill="#1A1919" opacity="0.268"/>
  <circle cx="900.0" cy="39.7" r="2.9" fill="#1A1919" opacity="0.2468"/>
  <circle cx="940.0" cy="39.7" r="2.67" fill="#1A1919" opacity="0.2242"/>
  <circle cx="980.0" cy="39.7" r="2.43" fill="#1A1919" opacity="0.2003"/>
  <circle cx="1020.0" cy="39.7" r="2.17" fill="#1A1919" opacity="0.1755"/>
  <circle cx="1060.0" cy="39.7" r="1.92" fill="#1A1919" opacity="0.15"/>
  <circle cx="1100.0" cy="39.7" r="1.65" fill="#1A1919" opacity="0.1238"/>
  <circle cx="1140.0" cy="39.7" r="1.38" fill="#1A1919" opacity="0.0972"/>
  <circle cx="1180.0" cy="39.7" r="1.11" fill="#1A1919" opacity="0.0703"/>
  <circle cx="20.0" cy="66.3" r="1.22" fill="#1A1919" opacity="0.0812"/>
  <circle cx="60.0" cy="66.3" r="1.5" fill="#1A1919" opacity="0.1089"/>
  <circle cx="100.0" cy="66.3" r="1.78" fill="#1A1919" opacity="0.1362"/>
  <circle cx="140.0" cy="66.3" r="2.05" fill="#1A1919" opacity="0.1632"/>
  <circle cx="180.0" cy="66.3" r="2.32" fill="#1A1919" opacity="0.1897"/>
  <circle cx="220.0" cy="66.3" r="2.58" fill="#1A1919" opacity="0.2155"/>
  <circle cx="260.0" cy="66.3" r="2.83" fill="#1A1919" opacity="0.2404"/>
  <circle cx="300.0" cy="66.3" r="3.07" fill="#1A1919" opacity="0.2642"/>
  <circle cx="340.0" cy="66.3" r="3.3" fill="#1A1919" opacity="0.2866"/>
  <circle cx="380.0" cy="66.3" r="3.51" fill="#1A1919" opacity="0.3072"/>
  <circle cx="420.0" cy="66.3" r="3.7" fill="#1A1919" opacity="0.3255"/>
  <circle cx="460.0" cy="66.3" r="3.85" fill="#1A1919" opacity="0.341"/>
  <circle cx="500.0" cy="66.3" r="3.98" fill="#1A1919" opacity="0.3533"/>
  <circle cx="540.0" cy="66.3" r="4.06" fill="#1A1919" opacity="0.3618"/>
  <circle cx="580.0" cy="66.3" r="4.11" fill="#1A1919" opacity="0.3662"/>
  <circle cx="620.0" cy="66.3" r="4.11" fill="#1A1919" opacity="0.3662"/>
  <circle cx="660.0" cy="66.3" r="4.06" fill="#1A1919" opacity="0.3618"/>
  <circle cx="700.0" cy="66.3" r="3.98" fill="#1A1919" opacity="0.3533"/>
  <circle cx="740.0" cy="66.3" r="3.85" fill="#1A1919" opacity="0.341"/>
  <circle cx="780.0" cy="66.3" r="3.7" fill="#1A1919" opacity="0.3255"/>
  <circle cx="820.0" cy="66.3" r="3.51" fill="#1A1919" opacity="0.3072"/>
  <circle cx="860.0" cy="66.3" r="3.3" fill="#1A1919" opacity="0.2866"/>
  <circle cx="900.0" cy="66.3" r="3.07" fill="#1A1919" opacity="0.2642"/>
  <circle cx="940.0" cy="66.3" r="2.83" fill="#1A1919" opacity="0.2404"/>
  <circle cx="980.0" cy="66.3" r="2.58" fill="#1A1919" opacity="0.2155"/>
  <circle cx="1020.0" cy="66.3" r="2.32" fill="#1A1919" opacity="0.1897"/>
  <circle cx="1060.0" cy="66.3" r="2.05" fill="#1A1919" opacity="0.1632"/>
  <circle cx="1100.0" cy="66.3" r="1.78" fill="#1A1919" opacity="0.1362"/>
  <circle cx="1140.0" cy="66.3" r="1.5" fill="#1A1919" opacity="0.1089"/>
  <circle cx="1180.0" cy="66.3" r="1.22" fill="#1A1919" opacity="0.0812"/>
  <circle cx="20.0" cy="93.0" r="1.32" fill="#1A1919" opacity="0.0916"/>
  <circle cx="60.0" cy="93.0" r="1.61" fill="#1A1919" opacity="0.1199"/>
  <circle cx="100.0" cy="93.0" r="1.9" fill="#1A1919" opacity="0.148"/>
  <circle cx="140.0" cy="93.0" r="2.18" fill="#1A1919" opacity="0.1758"/>
  <circle cx="180.0" cy="93.0" r="2.46" fill="#1A1919" opacity="0.2032"/>
  <circle cx="220.0" cy="93.0" r="2.73" fill="#1A1919" opacity="0.2301"/>
  <circle cx="260.0" cy="93.0" r="2.99" fill="#1A1919" opacity="0.2561"/>
  <circle cx="300.0" cy="93.0" r="3.25" fill="#1A1919" opacity="0.2812"/>
  <circle cx="340.0" cy="93.0" r="3.49" fill="#1A1919" opacity="0.3049"/>
  <circle cx="380.0" cy="93.0" r="3.71" fill="#1A1919" opacity="0.3268"/>
  <circle cx="420.0" cy="93.0" r="3.91" fill="#1A1919" opacity="0.3464"/>
  <circle cx="460.0" cy="93.0" r="4.08" fill="#1A1919" opacity="0.3633"/>
  <circle cx="500.0" cy="93.0" r="4.21" fill="#1A1919" opacity="0.3767"/>
  <circle cx="540.0" cy="93.0" r="4.31" fill="#1A1919" opacity="0.386"/>
  <circle cx="580.0" cy="93.0" r="4.36" fill="#1A1919" opacity="0.3908"/>
  <circle cx="620.0" cy="93.0" r="4.36" fill="#1A1919" opacity="0.3908"/>
  <circle cx="660.0" cy="93.0" r="4.31" fill="#1A1919" opacity="0.386"/>
  <circle cx="700.0" cy="93.0" r="4.21" fill="#1A1919" opacity="0.3767"/>
  <circle cx="740.0" cy="93.0" r="4.08" fill="#1A1919" opacity="0.3633"/>
  <circle cx="780.0" cy="93.0" r="3.91" fill="#1A1919" opacity="0.3464"/>
  <circle cx="820.0" cy="93.0" r="3.71" fill="#1A1919" opacity="0.3268"/>
  <circle cx="860.0" cy="93.0" r="3.49" fill="#1A1919" opacity="0.3049"/>
  <circle cx="900.0" cy="93.0" r="3.25" fill="#1A1919" opacity="0.2812"/>
  <circle cx="940.0" cy="93.0" r="2.99" fill="#1A1919" opacity="0.2561"/>
  <circle cx="980.0" cy="93.0" r="2.73" fill="#1A1919" opacity="0.2301"/>
  <circle cx="1020.0" cy="93.0" r="2.46" fill="#1A1919" opacity="0.2032"/>
  <circle cx="1060.0" cy="93.0" r="2.18" fill="#1A1919" opacity="0.1758"/>
  <circle cx="1100.0" cy="93.0" r="1.9" fill="#1A1919" opacity="0.148"/>
  <circle cx="1140.0" cy="93.0" r="1.61" fill="#1A1919" opacity="0.1199"/>
  <circle cx="1180.0" cy="93.0" r="1.32" fill="#1A1919" opacity="0.0916"/>
  <circle cx="20.0" cy="119.7" r="1.42" fill="#1A1919" opacity="0.1013"/>
  <circle cx="60.0" cy="119.7" r="1.72" fill="#1A1919" opacity="0.1302"/>
  <circle cx="100.0" cy="119.7" r="2.01" fill="#1A1919" opacity="0.1591"/>
  <circle cx="140.0" cy="119.7" r="2.3" fill="#1A1919" opacity="0.1878"/>
  <circle cx="180.0" cy="119.7" r="2.59" fill="#1A1919" opacity="0.2161"/>
  <circle cx="220.0" cy="119.7" r="2.87" fill="#1A1919" opacity="0.244"/>
  <circle cx="260.0" cy="119.7" r="3.14" fill="#1A1919" opacity="0.2712"/>
  <circle cx="300.0" cy="119.7" r="3.41" fill="#1A1919" opacity="0.2975"/>
  <circle cx="340.0" cy="119.7" r="3.67" fill="#1A1919" opacity="0.3226"/>
  <circle cx="380.0" cy="119.7" r="3.9" fill="#1A1919" opacity="0.346"/>
  <circle cx="420.0" cy="119.7" r="4.12" fill="#1A1919" opacity="0.3672"/>
  <circle cx="460.0" cy="119.7" r="4.3" fill="#1A1919" opacity="0.3855"/>
  <circle cx="500.0" cy="119.7" r="4.45" fill="#1A1919" opacity="0.4002"/>
  <circle cx="540.0" cy="119.7" r="4.56" fill="#1A1919" opacity="0.4105"/>
  <circle cx="580.0" cy="119.7" r="4.61" fill="#1A1919" opacity="0.4159"/>
  <circle cx="620.0" cy="119.7" r="4.61" fill="#1A1919" opacity="0.4159"/>
  <circle cx="660.0" cy="119.7" r="4.56" fill="#1A1919" opacity="0.4105"/>
  <circle cx="700.0" cy="119.7" r="4.45" fill="#1A1919" opacity="0.4002"/>
  <circle cx="740.0" cy="119.7" r="4.3" fill="#1A1919" opacity="0.3855"/>
  <circle cx="780.0" cy="119.7" r="4.12" fill="#1A1919" opacity="0.3672"/>
  <circle cx="820.0" cy="119.7" r="3.9" fill="#1A1919" opacity="0.346"/>
  <circle cx="860.0" cy="119.7" r="3.67" fill="#1A1919" opacity="0.3226"/>
  <circle cx="900.0" cy="119.7" r="3.41" fill="#1A1919" opacity="0.2975"/>
  <circle cx="940.0" cy="119.7" r="3.14" fill="#1A1919" opacity="0.2712"/>
  <circle cx="980.0" cy="119.7" r="2.87" fill="#1A1919" opacity="0.244"/>
  <circle cx="1020.0" cy="119.7" r="2.59" fill="#1A1919" opacity="0.2161"/>
  <circle cx="1060.0" cy="119.7" r="2.3" fill="#1A1919" opacity="0.1878"/>
  <circle cx="1100.0" cy="119.7" r="2.01" fill="#1A1919" opacity="0.1591"/>
  <circle cx="1140.0" cy="119.7" r="1.72" fill="#1A1919" opacity="0.1302"/>
  <circle cx="1180.0" cy="119.7" r="1.42" fill="#1A1919" opacity="0.1013"/>
  <circle cx="20.0" cy="146.3" r="1.51" fill="#1A1919" opacity="0.1103"/>
  <circle cx="60.0" cy="146.3" r="1.81" fill="#1A1919" opacity="0.1399"/>
  <circle cx="100.0" cy="146.3" r="2.11" fill="#1A1919" opacity="0.1695"/>
  <circle cx="140.0" cy="146.3" r="2.41" fill="#1A1919" opacity="0.199"/>
  <circle cx="180.0" cy="146.3" r="2.71" fill="#1A1919" opacity="0.2282"/>
  <circle cx="220.0" cy="146.3" r="3.0" fill="#1A1919" opacity="0.2572"/>
  <circle cx="260.0" cy="146.3" r="3.29" fill="#1A1919" opacity="0.2856"/>
  <circle cx="300.0" cy="146.3" r="3.57" fill="#1A1919" opacity="0.3132"/>
  <circle cx="340.0" cy="146.3" r="3.84" fill="#1A1919" opacity="0.3398"/>
  <circle cx="380.0" cy="146.3" r="4.09" fill="#1A1919" opacity="0.3648"/>
  <circle cx="420.0" cy="146.3" r="4.33" fill="#1A1919" opacity="0.3877"/>
  <circle cx="460.0" cy="146.3" r="4.53" fill="#1A1919" opacity="0.4077"/>
  <circle cx="500.0" cy="146.3" r="4.69" fill="#1A1919" opacity="0.4239"/>
  <circle cx="540.0" cy="146.3" r="4.81" fill="#1A1919" opacity="0.4354"/>
  <circle cx="580.0" cy="146.3" r="4.87" fill="#1A1919" opacity="0.4414"/>
  <circle cx="620.0" cy="146.3" r="4.87" fill="#1A1919" opacity="0.4414"/>
  <circle cx="660.0" cy="146.3" r="4.81" fill="#1A1919" opacity="0.4354"/>
  <circle cx="700.0" cy="146.3" r="4.69" fill="#1A1919" opacity="0.4239"/>
  <circle cx="740.0" cy="146.3" r="4.53" fill="#1A1919" opacity="0.4077"/>
  <circle cx="780.0" cy="146.3" r="4.33" fill="#1A1919" opacity="0.3877"/>
  <circle cx="820.0" cy="146.3" r="4.09" fill="#1A1919" opacity="0.3648"/>
  <circle cx="860.0" cy="146.3" r="3.84" fill="#1A1919" opacity="0.3398"/>
  <circle cx="900.0" cy="146.3" r="3.57" fill="#1A1919" opacity="0.3132"/>
  <circle cx="940.0" cy="146.3" r="3.29" fill="#1A1919" opacity="0.2856"/>
  <circle cx="980.0" cy="146.3" r="3.0" fill="#1A1919" opacity="0.2572"/>
  <circle cx="1020.0" cy="146.3" r="2.71" fill="#1A1919" opacity="0.2282"/>
  <circle cx="1060.0" cy="146.3" r="2.41" fill="#1A1919" opacity="0.199"/>
  <circle cx="1100.0" cy="146.3" r="2.11" fill="#1A1919" opacity="0.1695"/>
  <circle cx="1140.0" cy="146.3" r="1.81" fill="#1A1919" opacity="0.1399"/>
  <circle cx="1180.0" cy="146.3" r="1.51" fill="#1A1919" opacity="0.1103"/>
  <circle cx="20.0" cy="173.0" r="1.6" fill="#1A1919" opacity="0.1185"/>
  <circle cx="60.0" cy="173.0" r="1.9" fill="#1A1919" opacity="0.1488"/>
  <circle cx="100.0" cy="173.0" r="2.21" fill="#1A1919" opacity="0.1791"/>
  <circle cx="140.0" cy="173.0" r="2.52" fill="#1A1919" opacity="0.2093"/>
  <circle cx="180.0" cy="173.0" r="2.82" fill="#1A1919" opacity="0.2395"/>
  <circle cx="220.0" cy="173.0" r="3.13" fill="#1A1919" opacity="0.2695"/>
  <circle cx="260.0" cy="173.0" r="3.43" fill="#1A1919" opacity="0.2991"/>
  <circle cx="300.0" cy="173.0" r="3.72" fill="#1A1919" opacity="0.3281"/>
  <circle cx="340.0" cy="173.0" r="4.01" fill="#1A1919" opacity="0.3562"/>
  <circle cx="380.0" cy="173.0" r="4.28" fill="#1A1919" opacity="0.3829"/>
  <circle cx="420.0" cy="173.0" r="4.53" fill="#1A1919" opacity="0.4077"/>
  <circle cx="460.0" cy="173.0" r="4.75" fill="#1A1919" opacity="0.4296"/>
  <circle cx="500.0" cy="173.0" r="4.93" fill="#1A1919" opacity="0.4477"/>
  <circle cx="540.0" cy="173.0" r="5.07" fill="#1A1919" opacity="0.4607"/>
  <circle cx="580.0" cy="173.0" r="5.14" fill="#1A1919" opacity="0.4675"/>
  <circle cx="620.0" cy="173.0" r="5.14" fill="#1A1919" opacity="0.4675"/>
  <circle cx="660.0" cy="173.0" r="5.07" fill="#1A1919" opacity="0.4607"/>
  <circle cx="700.0" cy="173.0" r="4.93" fill="#1A1919" opacity="0.4477"/>
  <circle cx="740.0" cy="173.0" r="4.75" fill="#1A1919" opacity="0.4296"/>
  <circle cx="780.0" cy="173.0" r="4.53" fill="#1A1919" opacity="0.4077"/>
  <circle cx="820.0" cy="173.0" r="4.28" fill="#1A1919" opacity="0.3829"/>
  <circle cx="860.0" cy="173.0" r="4.01" fill="#1A1919" opacity="0.3562"/>
  <circle cx="900.0" cy="173.0" r="3.72" fill="#1A1919" opacity="0.3281"/>
  <circle cx="940.0" cy="173.0" r="3.43" fill="#1A1919" opacity="0.2991"/>
  <circle cx="980.0" cy="173.0" r="3.13" fill="#1A1919" opacity="0.2695"/>
  <circle cx="1020.0" cy="173.0" r="2.82" fill="#1A1919" opacity="0.2395"/>
  <circle cx="1060.0" cy="173.0" r="2.52" fill="#1A1919" opacity="0.2093"/>
  <circle cx="1100.0" cy="173.0" r="2.21" fill="#1A1919" opacity="0.1791"/>
  <circle cx="1140.0" cy="173.0" r="1.9" fill="#1A1919" opacity="0.1488"/>
  <circle cx="1180.0" cy="173.0" r="1.6" fill="#1A1919" opacity="0.1185"/>
  <circle cx="20.0" cy="199.7" r="1.67" fill="#1A1919" opacity="0.126"/>
  <circle cx="60.0" cy="199.7" r="1.98" fill="#1A1919" opacity="0.1568"/>
  <circle cx="100.0" cy="199.7" r="2.3" fill="#1A1919" opacity="0.1878"/>
  <circle cx="140.0" cy="199.7" r="2.61" fill="#1A1919" opacity="0.2188"/>
  <circle cx="180.0" cy="199.7" r="2.93" fill="#1A1919" opacity="0.2499"/>
  <circle cx="220.0" cy="199.7" r="3.24" fill="#1A1919" opacity="0.2809"/>
  <circle cx="260.0" cy="199.7" r="3.55" fill="#1A1919" opacity="0.3117"/>
  <circle cx="300.0" cy="199.7" r="3.86" fill="#1A1919" opacity="0.342"/>
  <circle cx="340.0" cy="199.7" r="4.16" fill="#1A1919" opacity="0.3717"/>
  <circle cx="380.0" cy="199.7" r="4.45" fill="#1A1919" opacity="0.4003"/>
  <circle cx="420.0" cy="199.7" r="4.73" fill="#1A1919" opacity="0.4271"/>
  <circle cx="460.0" cy="199.7" r="4.97" fill="#1A1919" opacity="0.4512"/>
  <circle cx="500.0" cy="199.7" r="5.18" fill="#1A1919" opacity="0.4714"/>
  <circle cx="540.0" cy="199.7" r="5.33" fill="#1A1919" opacity="0.4863"/>
  <circle cx="580.0" cy="199.7" r="5.41" fill="#1A1919" opacity="0.4942"/>
  <circle cx="620.0" cy="199.7" r="5.41" fill="#1A1919" opacity="0.4942"/>
  <circle cx="660.0" cy="199.7" r="5.33" fill="#1A1919" opacity="0.4863"/>
  <circle cx="700.0" cy="199.7" r="5.18" fill="#1A1919" opacity="0.4714"/>
  <circle cx="740.0" cy="199.7" r="4.97" fill="#1A1919" opacity="0.4512"/>
  <circle cx="780.0" cy="199.7" r="4.73" fill="#1A1919" opacity="0.4271"/>
  <circle cx="820.0" cy="199.7" r="4.45" fill="#1A1919" opacity="0.4003"/>
  <circle cx="860.0" cy="199.7" r="4.16" fill="#1A1919" opacity="0.3717"/>
  <circle cx="900.0" cy="199.7" r="3.86" fill="#1A1919" opacity="0.342"/>
  <circle cx="940.0" cy="199.7" r="3.55" fill="#1A1919" opacity="0.3117"/>
  <circle cx="980.0" cy="199.7" r="3.24" fill="#1A1919" opacity="0.2809"/>
  <circle cx="1020.0" cy="199.7" r="2.93" fill="#1A1919" opacity="0.2499"/>
  <circle cx="1060.0" cy="199.7" r="2.61" fill="#1A1919" opacity="0.2188"/>
  <circle cx="1100.0" cy="199.7" r="2.3" fill="#1A1919" opacity="0.1878"/>
  <circle cx="1140.0" cy="199.7" r="1.98" fill="#1A1919" opacity="0.1568"/>
  <circle cx="1180.0" cy="199.7" r="1.67" fill="#1A1919" opacity="0.126"/>
  <circle cx="20.0" cy="226.3" r="1.74" fill="#1A1919" opacity="0.1327"/>
  <circle cx="60.0" cy="226.3" r="2.06" fill="#1A1919" opacity="0.164"/>
  <circle cx="100.0" cy="226.3" r="2.38" fill="#1A1919" opacity="0.1956"/>
  <circle cx="140.0" cy="226.3" r="2.7" fill="#1A1919" opacity="0.2274"/>
  <circle cx="180.0" cy="226.3" r="3.02" fill="#1A1919" opacity="0.2592"/>
  <circle cx="220.0" cy="226.3" r="3.35" fill="#1A1919" opacity="0.2912"/>
  <circle cx="260.0" cy="226.3" r="3.67" fill="#1A1919" opacity="0.3231"/>
  <circle cx="300.0" cy="226.3" r="3.99" fill="#1A1919" opacity="0.3549"/>
  <circle cx="340.0" cy="226.3" r="4.31" fill="#1A1919" opacity="0.3862"/>
  <circle cx="380.0" cy="226.3" r="4.62" fill="#1A1919" opacity="0.4166"/>
  <circle cx="420.0" cy="226.3" r="4.91" fill="#1A1919" opacity="0.4456"/>
  <circle cx="460.0" cy="226.3" r="5.18" fill="#1A1919" opacity="0.4723"/>
  <circle cx="500.0" cy="226.3" r="5.42" fill="#1A1919" opacity="0.4951"/>
  <circle cx="540.0" cy="226.3" r="5.59" fill="#1A1919" opacity="0.5122"/>
  <circle cx="580.0" cy="226.3" r="5.68" fill="#1A1919" opacity="0.5215"/>
  <circle cx="620.0" cy="226.3" r="5.68" fill="#1A1919" opacity="0.5215"/>
  <circle cx="660.0" cy="226.3" r="5.59" fill="#1A1919" opacity="0.5122"/>
  <circle cx="700.0" cy="226.3" r="5.42" fill="#1A1919" opacity="0.4951"/>
  <circle cx="740.0" cy="226.3" r="5.18" fill="#1A1919" opacity="0.4723"/>
  <circle cx="780.0" cy="226.3" r="4.91" fill="#1A1919" opacity="0.4456"/>
  <circle cx="820.0" cy="226.3" r="4.62" fill="#1A1919" opacity="0.4166"/>
  <circle cx="860.0" cy="226.3" r="4.31" fill="#1A1919" opacity="0.3862"/>
  <circle cx="900.0" cy="226.3" r="3.99" fill="#1A1919" opacity="0.3549"/>
  <circle cx="940.0" cy="226.3" r="3.67" fill="#1A1919" opacity="0.3231"/>
  <circle cx="980.0" cy="226.3" r="3.35" fill="#1A1919" opacity="0.2912"/>
  <circle cx="1020.0" cy="226.3" r="3.02" fill="#1A1919" opacity="0.2592"/>
  <circle cx="1060.0" cy="226.3" r="2.7" fill="#1A1919" opacity="0.2274"/>
  <circle cx="1100.0" cy="226.3" r="2.38" fill="#1A1919" opacity="0.1956"/>
  <circle cx="1140.0" cy="226.3" r="2.06" fill="#1A1919" opacity="0.164"/>
  <circle cx="1180.0" cy="226.3" r="1.74" fill="#1A1919" opacity="0.1327"/>
  <circle cx="20.0" cy="253.0" r="1.8" fill="#1A1919" opacity="0.1385"/>
  <circle cx="60.0" cy="253.0" r="2.12" fill="#1A1919" opacity="0.1703"/>
  <circle cx="100.0" cy="253.0" r="2.45" fill="#1A1919" opacity="0.2024"/>
  <circle cx="140.0" cy="253.0" r="2.78" fill="#1A1919" opacity="0.2348"/>
  <circle cx="180.0" cy="253.0" r="3.11" fill="#1A1919" opacity="0.2675"/>
  <circle cx="220.0" cy="253.0" r="3.44" fill="#1A1919" opacity="0.3003"/>
  <circle cx="260.0" cy="253.0" r="3.77" fill="#1A1919" opacity="0.3333"/>
  <circle cx="300.0" cy="253.0" r="4.11" fill="#1A1919" opacity="0.3663"/>
  <circle cx="340.0" cy="253.0" r="4.44" fill="#1A1919" opacity="0.3992"/>
  <circle cx="380.0" cy="253.0" r="4.77" fill="#1A1919" opacity="0.4316"/>
  <circle cx="420.0" cy="253.0" r="5.09" fill="#1A1919" opacity="0.463"/>
  <circle cx="460.0" cy="253.0" r="5.39" fill="#1A1919" opacity="0.4925"/>
  <circle cx="500.0" cy="253.0" r="5.65" fill="#1A1919" opacity="0.5184"/>
  <circle cx="540.0" cy="253.0" r="5.85" fill="#1A1919" opacity="0.5384"/>
  <circle cx="580.0" cy="253.0" r="5.97" fill="#1A1919" opacity="0.5496"/>
  <circle cx="620.0" cy="253.0" r="5.97" fill="#1A1919" opacity="0.5496"/>
  <circle cx="660.0" cy="253.0" r="5.85" fill="#1A1919" opacity="0.5384"/>
  <circle cx="700.0" cy="253.0" r="5.65" fill="#1A1919" opacity="0.5184"/>
  <circle cx="740.0" cy="253.0" r="5.39" fill="#1A1919" opacity="0.4925"/>
  <circle cx="780.0" cy="253.0" r="5.09" fill="#1A1919" opacity="0.463"/>
  <circle cx="820.0" cy="253.0" r="4.77" fill="#1A1919" opacity="0.4316"/>
  <circle cx="860.0" cy="253.0" r="4.44" fill="#1A1919" opacity="0.3992"/>
  <circle cx="900.0" cy="253.0" r="4.11" fill="#1A1919" opacity="0.3663"/>
  <circle cx="940.0" cy="253.0" r="3.77" fill="#1A1919" opacity="0.3333"/>
  <circle cx="980.0" cy="253.0" r="3.44" fill="#1A1919" opacity="0.3003"/>
  <circle cx="1020.0" cy="253.0" r="3.11" fill="#1A1919" opacity="0.2675"/>
  <circle cx="1060.0" cy="253.0" r="2.78" fill="#1A1919" opacity="0.2348"/>
  <circle cx="1100.0" cy="253.0" r="2.45" fill="#1A1919" opacity="0.2024"/>
  <circle cx="1140.0" cy="253.0" r="2.12" fill="#1A1919" opacity="0.1703"/>
  <circle cx="1180.0" cy="253.0" r="1.8" fill="#1A1919" opacity="0.1385"/>
  <circle cx="20.0" cy="279.7" r="1.85" fill="#1A1919" opacity="0.1434"/>
  <circle cx="60.0" cy="279.7" r="2.18" fill="#1A1919" opacity="0.1756"/>
  <circle cx="100.0" cy="279.7" r="2.51" fill="#1A1919" opacity="0.2082"/>
  <circle cx="140.0" cy="279.7" r="2.84" fill="#1A1919" opacity="0.2412"/>
  <circle cx="180.0" cy="279.7" r="3.18" fill="#1A1919" opacity="0.2745"/>
  <circle cx="220.0" cy="279.7" r="3.52" fill="#1A1919" opacity="0.3081"/>
  <circle cx="260.0" cy="279.7" r="3.86" fill="#1A1919" opacity="0.3421"/>
  <circle cx="300.0" cy="279.7" r="4.21" fill="#1A1919" opacity="0.3763"/>
  <circle cx="340.0" cy="279.7" r="4.56" fill="#1A1919" opacity="0.4107"/>
  <circle cx="380.0" cy="279.7" r="4.91" fill="#1A1919" opacity="0.445"/>
  <circle cx="420.0" cy="279.7" r="5.25" fill="#1A1919" opacity="0.4788"/>
  <circle cx="460.0" cy="279.7" r="5.58" fill="#1A1919" opacity="0.5113"/>
  <circle cx="500.0" cy="279.7" r="5.88" fill="#1A1919" opacity="0.5409"/>
  <circle cx="540.0" cy="279.7" r="6.12" fill="#1A1919" opacity="0.5648"/>
  <circle cx="580.0" cy="279.7" r="6.26" fill="#1A1919" opacity="0.5786"/>
  <circle cx="620.0" cy="279.7" r="6.26" fill="#1A1919" opacity="0.5786"/>
  <circle cx="660.0" cy="279.7" r="6.12" fill="#1A1919" opacity="0.5648"/>
  <circle cx="700.0" cy="279.7" r="5.88" fill="#1A1919" opacity="0.5409"/>
  <circle cx="740.0" cy="279.7" r="5.58" fill="#1A1919" opacity="0.5113"/>
  <circle cx="780.0" cy="279.7" r="5.25" fill="#1A1919" opacity="0.4788"/>
  <circle cx="820.0" cy="279.7" r="4.91" fill="#1A1919" opacity="0.445"/>
  <circle cx="860.0" cy="279.7" r="4.56" fill="#1A1919" opacity="0.4107"/>
  <circle cx="900.0" cy="279.7" r="4.21" fill="#1A1919" opacity="0.3763"/>
  <circle cx="940.0" cy="279.7" r="3.86" fill="#1A1919" opacity="0.3421"/>
  <circle cx="980.0" cy="279.7" r="3.52" fill="#1A1919" opacity="0.3081"/>
  <circle cx="1020.0" cy="279.7" r="3.18" fill="#1A1919" opacity="0.2745"/>
  <circle cx="1060.0" cy="279.7" r="2.84" fill="#1A1919" opacity="0.2412"/>
  <circle cx="1100.0" cy="279.7" r="2.51" fill="#1A1919" opacity="0.2082"/>
  <circle cx="1140.0" cy="279.7" r="2.18" fill="#1A1919" opacity="0.1756"/>
  <circle cx="1180.0" cy="279.7" r="1.85" fill="#1A1919" opacity="0.1434"/>
  <circle cx="20.0" cy="306.3" r="1.89" fill="#1A1919" opacity="0.1473"/>
  <circle cx="60.0" cy="306.3" r="2.22" fill="#1A1919" opacity="0.1799"/>
  <circle cx="100.0" cy="306.3" r="2.55" fill="#1A1919" opacity="0.2129"/>
  <circle cx="140.0" cy="306.3" r="2.89" fill="#1A1919" opacity="0.2464"/>
  <circle cx="180.0" cy="306.3" r="3.24" fill="#1A1919" opacity="0.2802"/>
  <circle cx="220.0" cy="306.3" r="3.58" fill="#1A1919" opacity="0.3146"/>
  <circle cx="260.0" cy="306.3" r="3.94" fill="#1A1919" opacity="0.3494"/>
  <circle cx="300.0" cy="306.3" r="4.3" fill="#1A1919" opacity="0.3846"/>
  <circle cx="340.0" cy="306.3" r="4.66" fill="#1A1919" opacity="0.4204"/>
  <circle cx="380.0" cy="306.3" r="5.02" fill="#1A1919" opacity="0.4564"/>
  <circle cx="420.0" cy="306.3" r="5.39" fill="#1A1919" opacity="0.4925"/>
  <circle cx="460.0" cy="306.3" r="5.75" fill="#1A1919" opacity="0.5282"/>
  <circle cx="500.0" cy="306.3" r="6.09" fill="#1A1919" opacity="0.5619"/>
  <circle cx="540.0" cy="306.3" r="6.39" fill="#1A1919" opacity="0.5908"/>
  <circle cx="580.0" cy="306.3" r="6.57" fill="#1A1919" opacity="0.6088"/>
  <circle cx="620.0" cy="306.3" r="6.57" fill="#1A1919" opacity="0.6088"/>
  <circle cx="660.0" cy="306.3" r="6.39" fill="#1A1919" opacity="0.5908"/>
  <circle cx="700.0" cy="306.3" r="6.09" fill="#1A1919" opacity="0.5619"/>
  <circle cx="740.0" cy="306.3" r="5.75" fill="#1A1919" opacity="0.5282"/>
  <circle cx="780.0" cy="306.3" r="5.39" fill="#1A1919" opacity="0.4925"/>
  <circle cx="820.0" cy="306.3" r="5.02" fill="#1A1919" opacity="0.4564"/>
  <circle cx="860.0" cy="306.3" r="4.66" fill="#1A1919" opacity="0.4204"/>
  <circle cx="900.0" cy="306.3" r="4.3" fill="#1A1919" opacity="0.3846"/>
  <circle cx="940.0" cy="306.3" r="3.94" fill="#1A1919" opacity="0.3494"/>
  <circle cx="980.0" cy="306.3" r="3.58" fill="#1A1919" opacity="0.3146"/>
  <circle cx="1020.0" cy="306.3" r="3.24" fill="#1A1919" opacity="0.2802"/>
  <circle cx="1060.0" cy="306.3" r="2.89" fill="#1A1919" opacity="0.2464"/>
  <circle cx="1100.0" cy="306.3" r="2.55" fill="#1A1919" opacity="0.2129"/>
  <circle cx="1140.0" cy="306.3" r="2.22" fill="#1A1919" opacity="0.1799"/>
  <circle cx="1180.0" cy="306.3" r="1.89" fill="#1A1919" opacity="0.1473"/>
  <circle cx="20.0" cy="333.0" r="1.92" fill="#1A1919" opacity="0.1503"/>
  <circle cx="60.0" cy="333.0" r="2.25" fill="#1A1919" opacity="0.1832"/>
  <circle cx="100.0" cy="333.0" r="2.59" fill="#1A1919" opacity="0.2165"/>
  <circle cx="140.0" cy="333.0" r="2.93" fill="#1A1919" opacity="0.2503"/>
  <circle cx="180.0" cy="333.0" r="3.28" fill="#1A1919" opacity="0.2846"/>
  <circle cx="220.0" cy="333.0" r="3.63" fill="#1A1919" opacity="0.3195"/>
  <circle cx="260.0" cy="333.0" r="3.99" fill="#1A1919" opacity="0.3549"/>
  <circle cx="300.0" cy="333.0" r="4.36" fill="#1A1919" opacity="0.3911"/>
  <circle cx="340.0" cy="333.0" r="4.73" fill="#1A1919" opacity="0.4279"/>
  <circle cx="380.0" cy="333.0" r="5.11" fill="#1A1919" opacity="0.4654"/>
  <circle cx="420.0" cy="333.0" r="5.5" fill="#1A1919" opacity="0.5036"/>
  <circle cx="460.0" cy="333.0" r="5.89" fill="#1A1919" opacity="0.5422"/>
  <circle cx="500.0" cy="333.0" r="6.28" fill="#1A1919" opacity="0.5805"/>
  <circle cx="540.0" cy="333.0" r="6.64" fill="#1A1919" opacity="0.6157"/>
  <circle cx="580.0" cy="333.0" r="6.89" fill="#1A1919" opacity="0.6402"/>
  <circle cx="620.0" cy="333.0" r="6.89" fill="#1A1919" opacity="0.6402"/>
  <circle cx="660.0" cy="333.0" r="6.64" fill="#1A1919" opacity="0.6157"/>
  <circle cx="700.0" cy="333.0" r="6.28" fill="#1A1919" opacity="0.5805"/>
  <circle cx="740.0" cy="333.0" r="5.89" fill="#1A1919" opacity="0.5422"/>
  <circle cx="780.0" cy="333.0" r="5.5" fill="#1A1919" opacity="0.5036"/>
  <circle cx="820.0" cy="333.0" r="5.11" fill="#1A1919" opacity="0.4654"/>
  <circle cx="860.0" cy="333.0" r="4.73" fill="#1A1919" opacity="0.4279"/>
  <circle cx="900.0" cy="333.0" r="4.36" fill="#1A1919" opacity="0.3911"/>
  <circle cx="940.0" cy="333.0" r="3.99" fill="#1A1919" opacity="0.3549"/>
  <circle cx="980.0" cy="333.0" r="3.63" fill="#1A1919" opacity="0.3195"/>
  <circle cx="1020.0" cy="333.0" r="3.28" fill="#1A1919" opacity="0.2846"/>
  <circle cx="1060.0" cy="333.0" r="2.93" fill="#1A1919" opacity="0.2503"/>
  <circle cx="1100.0" cy="333.0" r="2.59" fill="#1A1919" opacity="0.2165"/>
  <circle cx="1140.0" cy="333.0" r="2.25" fill="#1A1919" opacity="0.1832"/>
  <circle cx="1180.0" cy="333.0" r="1.92" fill="#1A1919" opacity="0.1503"/>
  <circle cx="20.0" cy="359.7" r="1.94" fill="#1A1919" opacity="0.1524"/>
  <circle cx="60.0" cy="359.7" r="2.27" fill="#1A1919" opacity="0.1854"/>
  <circle cx="100.0" cy="359.7" r="2.61" fill="#1A1919" opacity="0.2189"/>
  <circle cx="140.0" cy="359.7" r="2.96" fill="#1A1919" opacity="0.253"/>
  <circle cx="180.0" cy="359.7" r="3.31" fill="#1A1919" opacity="0.2876"/>
  <circle cx="220.0" cy="359.7" r="3.67" fill="#1A1919" opacity="0.3228"/>
  <circle cx="260.0" cy="359.7" r="4.03" fill="#1A1919" opacity="0.3587"/>
  <circle cx="300.0" cy="359.7" r="4.4" fill="#1A1919" opacity="0.3955"/>
  <circle cx="340.0" cy="359.7" r="4.79" fill="#1A1919" opacity="0.4331"/>
  <circle cx="380.0" cy="359.7" r="5.18" fill="#1A1919" opacity="0.4717"/>
  <circle cx="420.0" cy="359.7" r="5.58" fill="#1A1919" opacity="0.5114"/>
  <circle cx="460.0" cy="359.7" r="6.0" fill="#1A1919" opacity="0.5525"/>
  <circle cx="500.0" cy="359.7" r="6.43" fill="#1A1919" opacity="0.5947"/>
  <circle cx="540.0" cy="359.7" r="6.86" fill="#1A1919" opacity="0.6372"/>
  <circle cx="580.0" cy="359.7" r="7.22" fill="#1A1919" opacity="0.6728"/>
  <circle cx="620.0" cy="359.7" r="7.22" fill="#1A1919" opacity="0.6728"/>
  <circle cx="660.0" cy="359.7" r="6.86" fill="#1A1919" opacity="0.6372"/>
  <circle cx="700.0" cy="359.7" r="6.43" fill="#1A1919" opacity="0.5947"/>
  <circle cx="740.0" cy="359.7" r="6.0" fill="#1A1919" opacity="0.5525"/>
  <circle cx="780.0" cy="359.7" r="5.58" fill="#1A1919" opacity="0.5114"/>
  <circle cx="820.0" cy="359.7" r="5.18" fill="#1A1919" opacity="0.4717"/>
  <circle cx="860.0" cy="359.7" r="4.79" fill="#1A1919" opacity="0.4331"/>
  <circle cx="900.0" cy="359.7" r="4.4" fill="#1A1919" opacity="0.3955"/>
  <circle cx="940.0" cy="359.7" r="4.03" fill="#1A1919" opacity="0.3587"/>
  <circle cx="980.0" cy="359.7" r="3.67" fill="#1A1919" opacity="0.3228"/>
  <circle cx="1020.0" cy="359.7" r="3.31" fill="#1A1919" opacity="0.2876"/>
  <circle cx="1060.0" cy="359.7" r="2.96" fill="#1A1919" opacity="0.253"/>
  <circle cx="1100.0" cy="359.7" r="2.61" fill="#1A1919" opacity="0.2189"/>
  <circle cx="1140.0" cy="359.7" r="2.27" fill="#1A1919" opacity="0.1854"/>
  <circle cx="1180.0" cy="359.7" r="1.94" fill="#1A1919" opacity="0.1524"/>
  <circle cx="20.0" cy="386.3" r="1.95" fill="#1A1919" opacity="0.1534"/>
  <circle cx="60.0" cy="386.3" r="2.29" fill="#1A1919" opacity="0.1865"/>
  <circle cx="100.0" cy="386.3" r="2.63" fill="#1A1919" opacity="0.2201"/>
  <circle cx="140.0" cy="386.3" r="2.97" fill="#1A1919" opacity="0.2543"/>
  <circle cx="180.0" cy="386.3" r="3.33" fill="#1A1919" opacity="0.2891"/>
  <circle cx="220.0" cy="386.3" r="3.68" fill="#1A1919" opacity="0.3245"/>
  <circle cx="260.0" cy="386.3" r="4.05" fill="#1A1919" opacity="0.3607"/>
  <circle cx="300.0" cy="386.3" r="4.43" fill="#1A1919" opacity="0.3977"/>
  <circle cx="340.0" cy="386.3" r="4.81" fill="#1A1919" opacity="0.4357"/>
  <circle cx="380.0" cy="386.3" r="5.21" fill="#1A1919" opacity="0.4749"/>
  <circle cx="420.0" cy="386.3" r="5.62" fill="#1A1919" opacity="0.5155"/>
  <circle cx="460.0" cy="386.3" r="6.05" fill="#1A1919" opacity="0.558"/>
  <circle cx="500.0" cy="386.3" r="6.51" fill="#1A1919" opacity="0.6027"/>
  <circle cx="540.0" cy="386.3" r="6.99" fill="#1A1919" opacity="0.6509"/>
  <circle cx="580.0" cy="386.3" r="7.52" fill="#1A1919" opacity="0.703"/>
  <circle cx="620.0" cy="386.3" r="7.52" fill="#1A1919" opacity="0.703"/>
  <circle cx="660.0" cy="386.3" r="6.99" fill="#1A1919" opacity="0.6509"/>
  <circle cx="700.0" cy="386.3" r="6.51" fill="#1A1919" opacity="0.6027"/>
  <circle cx="740.0" cy="386.3" r="6.05" fill="#1A1919" opacity="0.558"/>
  <circle cx="780.0" cy="386.3" r="5.62" fill="#1A1919" opacity="0.5155"/>
  <circle cx="820.0" cy="386.3" r="5.21" fill="#1A1919" opacity="0.4749"/>
  <circle cx="860.0" cy="386.3" r="4.81" fill="#1A1919" opacity="0.4357"/>
  <circle cx="900.0" cy="386.3" r="4.43" fill="#1A1919" opacity="0.3977"/>
  <circle cx="940.0" cy="386.3" r="4.05" fill="#1A1919" opacity="0.3607"/>
  <circle cx="980.0" cy="386.3" r="3.68" fill="#1A1919" opacity="0.3245"/>
  <circle cx="1020.0" cy="386.3" r="3.33" fill="#1A1919" opacity="0.2891"/>
  <circle cx="1060.0" cy="386.3" r="2.97" fill="#1A1919" opacity="0.2543"/>
  <circle cx="1100.0" cy="386.3" r="2.63" fill="#1A1919" opacity="0.2201"/>
  <circle cx="1140.0" cy="386.3" r="2.29" fill="#1A1919" opacity="0.1865"/>
  <circle cx="1180.0" cy="386.3" r="1.95" fill="#1A1919" opacity="0.1534"/>
</svg>
