<?xml version="1.0" encoding="UTF-8"?>
<!-- Voice Aura Design System — sound-wave-wide.svg
     Full-width audio waveform visualization (1440×120).
     Usage: decorative waveform bar pattern spanning the hero section width.
     ~60 vertical rounded bars with heights varying from ~10px at edges
     to ~100px in the center, simulating an audio amplitude waveform.
     Bar width: 4px, corner radius: 2px.
     Opacity: 0.04 at edges → 0.15 at center.
     Color: near-black #1A1919  -->
<svg xmlns="http://www.w3.org/2000/svg" viewBox="0 0 1440 120"
     width="1440" height="120" fill="none">
  <rect x="21.6" y="55.0" width="4" height="10.0" rx="2" fill="#1A1919" opacity="0.04"/>
  <rect x="45.2" y="53.6" width="4" height="12.7" rx="2" fill="#1A1919" opacity="0.0437"/>
  <rect x="68.8" y="52.6" width="4" height="14.8" rx="2" fill="#1A1919" opacity="0.0475"/>
  <rect x="92.4" y="52.4" width="4" height="15.2" rx="2" fill="#1A1919" opacity="0.0512"/>
  <rect x="116.0" y="52.5" width="4" height="15.1" rx="2" fill="#1A1919" opacity="0.0549"/>
  <rect x="139.6" y="51.5" width="4" height="17.0" rx="2" fill="#1A1919" opacity="0.0586"/>
  <rect x="163.2" y="49.1" width="4" height="21.7" rx="2" fill="#1A1919" opacity="0.0624"/>
  <rect x="186.9" y="46.7" width="4" height="26.6" rx="2" fill="#1A1919" opacity="0.0661"/>
  <rect x="210.5" y="45.6" width="4" height="28.8" rx="2" fill="#1A1919" opacity="0.0698"/>
  <rect x="234.1" y="45.6" width="4" height="28.8" rx="2" fill="#1A1919" opacity="0.0736"/>
  <rect x="257.7" y="44.7" width="4" height="30.6" rx="2" fill="#1A1919" opacity="0.0773"/>
  <rect x="281.3" y="41.6" width="4" height="36.8" rx="2" fill="#1A1919" opacity="0.081"/>
  <rect x="304.9" y="37.8" width="4" height="44.4" rx="2" fill="#1A1919" opacity="0.0847"/>
  <rect x="328.5" y="36.5" width="4" height="47.1" rx="2" fill="#1A1919" opacity="0.0885"/>
  <rect x="352.1" y="39.0" width="4" height="42.0" rx="2" fill="#1A1919" opacity="0.0922"/>
  <rect x="375.7" y="42.9" width="4" height="34.2" rx="2" fill="#1A1919" opacity="0.0959"/>
  <rect x="399.3" y="44.0" width="4" height="32.1" rx="2" fill="#1A1919" opacity="0.0997"/>
  <rect x="422.9" y="40.7" width="4" height="38.6" rx="2" fill="#1A1919" opacity="0.1034"/>
  <rect x="446.5" y="36.1" width="4" height="47.8" rx="2" fill="#1A1919" opacity="0.1071"/>
  <rect x="470.1" y="34.2" width="4" height="51.5" rx="2" fill="#1A1919" opacity="0.1108"/>
  <rect x="493.7" y="35.6" width="4" height="48.8" rx="2" fill="#1A1919" opacity="0.1146"/>
  <rect x="517.3" y="36.1" width="4" height="47.7" rx="2" fill="#1A1919" opacity="0.1183"/>
  <rect x="541.0" y="31.9" width="4" height="56.3" rx="2" fill="#1A1919" opacity="0.122"/>
  <rect x="564.6" y="24.0" width="4" height="72.0" rx="2" fill="#1A1919" opacity="0.1258"/>
  <rect x="588.2" y="18.5" width="4" height="83.0" rx="2" fill="#1A1919" opacity="0.1295"/>
  <rect x="611.8" y="20.2" width="4" height="79.5" rx="2" fill="#1A1919" opacity="0.1332"/>
  <rect x="635.4" y="27.4" width="4" height="65.3" rx="2" fill="#1A1919" opacity="0.1369"/>
  <rect x="659.0" y="32.8" width="4" height="54.5" rx="2" fill="#1A1919" opacity="0.1407"/>
  <rect x="682.6" y="31.5" width="4" height="57.0" rx="2" fill="#1A1919" opacity="0.1444"/>
  <rect x="706.2" y="26.0" width="4" height="68.0" rx="2" fill="#1A1919" opacity="0.1481"/>
  <rect x="729.8" y="24.1" width="4" height="71.8" rx="2" fill="#1A1919" opacity="0.1481"/>
  <rect x="753.4" y="28.7" width="4" height="62.6" rx="2" fill="#1A1919" opacity="0.1444"/>
  <rect x="777.0" y="33.9" width="4" height="52.3" rx="2" fill="#1A1919" opacity="0.1407"/>
  <rect x="800.6" y="33.4" width="4" height="53.2" rx="2" fill="#1A1919" opacity="0.1369"/>
  <rect x="824.2" y="27.0" width="4" height="66.1" rx="2" fill="#1A1919" opacity="0.1332"/>
  <rect x="847.8" y="20.6" width="4" height="78.8" rx="2" fill="#1A1919" opacity="0.1295"/>
  <rect x="871.4" y="20.5" width="4" height="79.0" rx="2" fill="#1A1919" opacity="0.1258"/>
  <rect x="895.0" y="26.7" width="4" height="66.6" rx="2" fill="#1A1919" opacity="0.122"/>
  <rect x="918.7" y="33.6" width="4" height="52.7" rx="2" fill="#1A1919" opacity="0.1183"/>
  <rect x="942.3" y="36.4" width="4" height="47.3" rx="2" fill="#1A1919" opacity="0.1146"/>
  <rect x="965.9" y="35.3" width="4" height="49.4" rx="2" fill="#1A1919" opacity="0.1108"/>
  <rect x="989.5" y="34.8" width="4" height="50.5" rx="2" fill="#1A1919" opacity="0.1071"/>
  <rect x="1013.1" y="37.8" width="4" height="44.4" rx="2" fill="#1A1919" opacity="0.1034"/>
  <rect x="1036.7" y="42.6" width="4" height="34.8" rx="2" fill="#1A1919" opacity="0.0997"/>
  <rect x="1060.3" y="45.0" width="4" height="30.1" rx="2" fill="#1A1919" opacity="0.0959"/>
  <rect x="1083.9" y="43.1" width="4" height="33.8" rx="2" fill="#1A1919" opacity="0.0922"/>
  <rect x="1107.5" y="39.4" width="4" height="41.2" rx="2" fill="#1A1919" opacity="0.0885"/>
  <rect x="1131.1" y="37.8" width="4" height="44.4" rx="2" fill="#1A1919" opacity="0.0847"/>
  <rect x="1154.7" y="39.8" width="4" height="40.4" rx="2" fill="#1A1919" opacity="0.081"/>
  <rect x="1178.3" y="43.4" width="4" height="33.3" rx="2" fill="#1A1919" opacity="0.0773"/>
  <rect x="1201.9" y="45.7" width="4" height="28.6" rx="2" fill="#1A1919" opacity="0.0736"/>
  <rect x="1225.5" y="46.1" width="4" height="27.7" rx="2" fill="#1A1919" opacity="0.0698"/>
  <rect x="1249.1" y="46.4" width="4" height="27.2" rx="2" fill="#1A1919" opacity="0.0661"/>
  <rect x="1272.8" y="48.0" width="4" height="24.1" rx="2" fill="#1A1919" opacity="0.0624"/>
  <rect x="1296.4" y="50.5" width="4" height="19.1" rx="2" fill="#1A1919" opacity="0.0586"/>
  <rect x="1320.0" y="52.4" width="4" height="15.2" rx="2" fill="#1A1919" opacity="0.0549"/>
  <rect x="1343.6" y="53.0" width="4" height="13.9" rx="2" fill="#1A1919" opacity="0.0512"/>
  <rect x="1367.2" y="53.1" width="4" height="13.7" rx="2" fill="#1A1919" opacity="0.0475"/>
  <rect x="1390.8" y="53.8" width="4" height="12.5" rx="2" fill="#1A1919" opacity="0.0437"/>
  <rect x="1414.4" y="55.0" width="4" height="10.0" rx="2" fill="#1A1919" opacity="0.04"/>
</svg>
