<svg xmlns="http://www.w3.org/2000/svg" width="600" height="375" viewBox="0 0 600 375">
  <defs>
    <linearGradient id="bg3" x1="0" y1="0" x2="1" y2="1">
      <stop offset="0%" stop-color="#0c4a6e"/>
      <stop offset="100%" stop-color="#075985"/>
    </linearGradient>
  </defs>
  <rect width="600" height="375" fill="url(#bg3)"/>
  <!-- Sound waves -->
  <g transform="translate(240,130)" fill="none" stroke="#7dd3fc" stroke-width="2" stroke-linecap="round" opacity="0.4">
    <path d="M12,0 Q18,20 12,40 Q6,60 12,80"/>
    <path d="M30,0 Q36,20 30,40 Q24,60 30,80"/>
    <path d="M48,0 Q54,20 48,40 Q42,60 48,80"/>
    <path d="M66,0 Q72,20 66,40 Q60,60 66,80"/>
    <path d="M84,0 Q90,20 84,40 Q78,60 84,80"/>
    <path d="M102,0 Q108,20 102,40 Q96,60 102,80"/>
  </g>
  <!-- Brain/AI icon -->
  <g transform="translate(272,150)" fill="none" stroke="#7dd3fc" stroke-width="1.5" opacity="0.35">
    <circle cx="12" cy="12" r="10"/>
    <path d="M12,2 v4 M12,18 v4 M2,12 h4 M18,12 h4"/>
    <path d="M5.6,5.6 l2.8,2.8 M15.6,15.6 l2.8,2.8 M5.6,18.4 l2.8,-2.8 M15.6,8.4 l2.8,-2.8"/>
  </g>
  <!-- Network nodes -->
  <g fill="#7dd3fc" opacity="0.15">
    <circle cx="150" cy="100" r="3"/>
    <circle cx="450" cy="100" r="3"/>
    <circle cx="150" cy="275" r="3"/>
    <circle cx="450" cy="275" r="3"/>
    <circle cx="300" cy="60" r="2"/>
    <circle cx="300" cy="315" r="2"/>
  </g>
</svg>
